<svg width="1024" height="1024" viewBox="0 0 1024 1024" fill="none" xmlns="http://www.w3.org/2000/svg">
<rect width="1024" height="1024" rx="20" fill="url(#paint0_radial_29_2)"/>
<mask id="path-2-outside-1_29_2" maskUnits="userSpaceOnUse" x="393" y="365" width="234" height="318" fill="black">
<rect fill="white" x="393" y="365" width="234" height="318"/>
<path d="M562.687 465.582C562.687 453.574 557.97 443.139 548.536 434.276C539.387 425.414 526.379 420.982 509.511 420.982C495.216 420.982 483.923 423.984 475.632 429.988C467.341 435.706 463.196 443.568 463.196 453.574C463.196 458.72 464.196 463.438 466.198 467.726C468.199 471.729 471.63 475.445 476.49 478.876C481.636 482.021 488.212 484.88 496.217 487.453C504.508 490.026 514.943 492.456 527.522 494.743C558.971 500.461 582.986 510.039 599.568 523.476C616.15 536.913 624.441 556.783 624.441 583.085V588.231C624.441 602.24 621.868 614.963 616.722 626.398C611.861 637.548 604.714 647.126 595.28 655.131C585.845 663.136 574.409 669.283 560.972 673.571C547.535 677.86 532.382 680.004 515.515 680.004C495.788 680.004 478.348 677.288 463.196 671.856C448.329 666.138 435.893 658.419 425.886 648.698C415.88 638.692 408.304 627.113 403.158 613.962C398.011 600.525 395.438 585.944 395.438 570.22V557.355H452.046V567.647C452.046 585.658 457.192 600.096 467.484 610.96C478.062 621.538 494.358 626.827 516.372 626.827C533.526 626.827 546.248 623.111 554.539 615.677C562.83 608.244 566.976 599.381 566.976 589.089C566.976 584.229 566.118 579.654 564.403 575.366C562.687 570.792 559.686 566.789 555.397 563.358C551.109 559.642 545.248 556.354 537.814 553.495C530.381 550.636 520.947 548.206 509.511 546.205C494.358 543.632 480.492 540.344 467.913 536.341C455.334 532.053 444.327 526.478 434.892 519.616C425.743 512.755 418.596 504.178 413.45 493.886C408.304 483.593 405.731 471.014 405.731 456.147V453.574C405.731 441.281 408.161 429.988 413.021 419.696C418.167 409.118 425.172 399.969 434.034 392.25C443.183 384.531 454.047 378.527 466.626 374.238C479.492 369.95 493.787 367.806 509.511 367.806C527.236 367.806 542.961 370.379 556.684 375.525C570.407 380.385 581.842 387.104 590.991 395.68C600.426 404.257 607.43 414.121 612.004 425.271C616.865 436.421 619.295 448.142 619.295 460.436V475.874H562.687V465.582Z"/>
</mask>
<path d="M562.687 465.582C562.687 453.574 557.97 443.139 548.536 434.276C539.387 425.414 526.379 420.982 509.511 420.982C495.216 420.982 483.923 423.984 475.632 429.988C467.341 435.706 463.196 443.568 463.196 453.574C463.196 458.72 464.196 463.438 466.198 467.726C468.199 471.729 471.63 475.445 476.49 478.876C481.636 482.021 488.212 484.88 496.217 487.453C504.508 490.026 514.943 492.456 527.522 494.743C558.971 500.461 582.986 510.039 599.568 523.476C616.15 536.913 624.441 556.783 624.441 583.085V588.231C624.441 602.24 621.868 614.963 616.722 626.398C611.861 637.548 604.714 647.126 595.28 655.131C585.845 663.136 574.409 669.283 560.972 673.571C547.535 677.86 532.382 680.004 515.515 680.004C495.788 680.004 478.348 677.288 463.196 671.856C448.329 666.138 435.893 658.419 425.886 648.698C415.88 638.692 408.304 627.113 403.158 613.962C398.011 600.525 395.438 585.944 395.438 570.22V557.355H452.046V567.647C452.046 585.658 457.192 600.096 467.484 610.96C478.062 621.538 494.358 626.827 516.372 626.827C533.526 626.827 546.248 623.111 554.539 615.677C562.83 608.244 566.976 599.381 566.976 589.089C566.976 584.229 566.118 579.654 564.403 575.366C562.687 570.792 559.686 566.789 555.397 563.358C551.109 559.642 545.248 556.354 537.814 553.495C530.381 550.636 520.947 548.206 509.511 546.205C494.358 543.632 480.492 540.344 467.913 536.341C455.334 532.053 444.327 526.478 434.892 519.616C425.743 512.755 418.596 504.178 413.45 493.886C408.304 483.593 405.731 471.014 405.731 456.147V453.574C405.731 441.281 408.161 429.988 413.021 419.696C418.167 409.118 425.172 399.969 434.034 392.25C443.183 384.531 454.047 378.527 466.626 374.238C479.492 369.95 493.787 367.806 509.511 367.806C527.236 367.806 542.961 370.379 556.684 375.525C570.407 380.385 581.842 387.104 590.991 395.68C600.426 404.257 607.43 414.121 612.004 425.271C616.865 436.421 619.295 448.142 619.295 460.436V475.874H562.687V465.582Z" fill="#0D4E03"/>
<path d="M548.536 434.276L547.144 435.713L547.155 435.724L547.166 435.734L548.536 434.276ZM475.632 429.988L476.768 431.634L476.787 431.621L476.805 431.608L475.632 429.988ZM466.198 467.726L464.385 468.572L464.397 468.596L464.409 468.621L466.198 467.726ZM476.49 478.876L475.336 480.51L475.39 480.548L475.447 480.583L476.49 478.876ZM496.217 487.453L495.605 489.357L495.614 489.36L495.624 489.363L496.217 487.453ZM527.522 494.743L527.164 496.711V496.711L527.522 494.743ZM599.568 523.476L598.309 525.03V525.03L599.568 523.476ZM616.722 626.398L614.898 625.578L614.893 625.588L614.888 625.599L616.722 626.398ZM595.28 655.131L596.573 656.656V656.656L595.28 655.131ZM560.972 673.571L561.58 675.476L560.972 673.571ZM463.196 671.856L462.478 673.722L462.499 673.731L462.521 673.738L463.196 671.856ZM425.886 648.698L424.472 650.112L424.482 650.123L424.493 650.133L425.886 648.698ZM403.158 613.962L401.29 614.677L401.292 614.684L401.295 614.691L403.158 613.962ZM395.438 557.355V555.355H393.438V557.355H395.438ZM452.046 557.355H454.046V555.355H452.046V557.355ZM467.484 610.96L466.032 612.335L466.051 612.355L466.07 612.374L467.484 610.96ZM554.539 615.677L553.204 614.188V614.188L554.539 615.677ZM564.403 575.366L562.53 576.068L562.538 576.089L562.546 576.109L564.403 575.366ZM555.397 563.358L554.087 564.87L554.117 564.895L554.148 564.92L555.397 563.358ZM537.814 553.495L538.532 551.628V551.628L537.814 553.495ZM509.511 546.205L509.856 544.234L509.846 544.233L509.511 546.205ZM467.913 536.341L467.268 538.234L467.287 538.241L467.307 538.247L467.913 536.341ZM434.892 519.616L433.692 521.216L433.704 521.225L433.716 521.234L434.892 519.616ZM413.021 419.696L411.222 418.821L411.217 418.831L411.212 418.842L413.021 419.696ZM434.034 392.25L432.745 390.721L432.733 390.731L432.721 390.742L434.034 392.25ZM466.626 374.238L465.994 372.341L465.981 372.345L466.626 374.238ZM556.684 375.525L555.981 377.397L555.999 377.404L556.016 377.41L556.684 375.525ZM590.991 395.68L589.623 397.14L589.634 397.15L589.646 397.16L590.991 395.68ZM612.004 425.271L610.154 426.03L610.162 426.05L610.171 426.07L612.004 425.271ZM619.295 475.874V477.874H621.295V475.874H619.295ZM562.687 475.874H560.687V477.874H562.687V475.874ZM562.687 465.582H564.687C564.687 452.976 559.707 442.027 549.905 432.819L548.536 434.276L547.166 435.734C556.233 444.252 560.687 454.173 560.687 465.582H562.687ZM548.536 434.276L549.927 432.84C540.297 423.511 526.725 418.982 509.511 418.982V420.982V422.982C526.033 422.982 538.477 427.317 547.144 435.713L548.536 434.276ZM509.511 420.982V418.982C494.957 418.982 483.203 422.036 474.459 428.368L475.632 429.988L476.805 431.608C484.643 425.932 495.475 422.982 509.511 422.982V420.982ZM475.632 429.988L474.497 428.342C465.669 434.43 461.196 442.905 461.196 453.574H463.196H465.196C465.196 444.231 469.014 436.982 476.768 431.634L475.632 429.988ZM463.196 453.574H461.196C461.196 458.987 462.25 463.996 464.385 468.572L466.198 467.726L468.01 466.88C466.143 462.879 465.196 458.454 465.196 453.574H463.196ZM466.198 467.726L464.409 468.621C466.598 473 470.292 476.949 475.336 480.51L476.49 478.876L477.643 477.242C472.967 473.941 469.8 470.458 467.986 466.832L466.198 467.726ZM476.49 478.876L475.447 480.583C480.77 483.835 487.503 486.753 495.605 489.357L496.217 487.453L496.829 485.549C488.92 483.007 482.502 480.206 477.533 477.17L476.49 478.876ZM496.217 487.453L495.624 489.363C504.019 491.968 514.539 494.416 527.164 496.711L527.522 494.743L527.88 492.776C515.347 490.497 504.997 488.084 496.809 485.543L496.217 487.453ZM527.522 494.743L527.164 496.711C558.434 502.396 582.086 511.884 598.309 525.03L599.568 523.476L600.827 521.922C583.886 508.194 559.507 498.526 527.88 492.776L527.522 494.743ZM599.568 523.476L598.309 525.03C614.314 538 622.441 557.232 622.441 583.085H624.441H626.441C626.441 556.334 617.986 535.826 600.827 521.922L599.568 523.476ZM624.441 583.085H622.441V588.231H624.441H626.441V583.085H624.441ZM624.441 588.231H622.441C622.441 601.99 619.915 614.429 614.898 625.578L616.722 626.398L618.546 627.219C623.821 615.497 626.441 602.49 626.441 588.231H624.441ZM616.722 626.398L614.888 625.599C610.152 636.464 603.191 645.795 593.986 653.606L595.28 655.131L596.573 656.656C606.237 648.457 613.571 638.632 618.555 627.198L616.722 626.398ZM595.28 655.131L593.986 653.606C584.779 661.418 573.585 667.447 560.364 671.666L560.972 673.571L561.58 675.476C575.234 671.119 586.911 664.854 596.573 656.656L595.28 655.131ZM560.972 673.571L560.364 671.666C547.158 675.881 532.215 678.004 515.515 678.004V680.004V682.004C532.55 682.004 547.912 679.839 561.58 675.476L560.972 673.571ZM515.515 680.004V678.004C495.968 678.004 478.764 675.312 463.871 669.973L463.196 671.856L462.521 673.738C477.932 679.263 495.608 682.004 515.515 682.004V680.004ZM463.196 671.856L463.914 669.989C449.264 664.354 437.067 656.771 427.28 647.264L425.886 648.698L424.493 650.133C434.718 660.066 447.395 667.921 462.478 673.722L463.196 671.856ZM425.886 648.698L427.3 647.284C417.489 637.472 410.065 626.127 405.02 613.233L403.158 613.962L401.295 614.691C406.542 628.099 414.271 639.911 424.472 650.112L425.886 648.698ZM403.158 613.962L405.025 613.247C399.974 600.058 397.438 585.722 397.438 570.22H395.438H393.438C393.438 586.166 396.048 600.991 401.29 614.677L403.158 613.962ZM395.438 570.22H397.438V557.355H395.438H393.438V570.22H395.438ZM395.438 557.355V559.355H452.046V557.355V555.355H395.438V557.355ZM452.046 557.355H450.046V567.647H452.046H454.046V557.355H452.046ZM452.046 567.647H450.046C450.046 586.059 455.319 601.027 466.032 612.335L467.484 610.96L468.936 609.585C459.065 599.165 454.046 585.257 454.046 567.647H452.046ZM467.484 610.96L466.07 612.374C477.169 623.473 494.077 628.827 516.372 628.827V626.827V624.827C494.64 624.827 478.956 619.603 468.898 609.546L467.484 610.96ZM516.372 626.827V628.827C533.763 628.827 547.062 625.067 555.874 617.166L554.539 615.677L553.204 614.188C545.434 621.154 533.29 624.827 516.372 624.827V626.827ZM554.539 615.677L555.874 617.166C564.55 609.389 568.976 600 568.976 589.089H566.976H564.976C564.976 598.763 561.111 607.099 553.204 614.188L554.539 615.677ZM566.976 589.089H568.976C568.976 583.988 568.074 579.16 566.26 574.623L564.403 575.366L562.546 576.109C564.162 580.149 564.976 584.47 564.976 589.089H566.976ZM564.403 575.366L566.275 574.664C564.418 569.712 561.181 565.424 556.646 561.797L555.397 563.358L554.148 564.92C558.19 568.154 560.956 571.872 562.53 576.068L564.403 575.366ZM555.397 563.358L556.707 561.847C552.188 557.931 546.102 554.539 538.532 551.628L537.814 553.495L537.097 555.362C544.394 558.168 550.029 561.353 554.087 564.87L555.397 563.358ZM537.814 553.495L538.532 551.628C530.937 548.707 521.367 546.249 509.856 544.235L509.511 546.205L509.166 548.175C520.527 550.163 529.825 552.565 537.097 555.362L537.814 553.495ZM509.511 546.205L509.846 544.233C494.771 541.673 480.997 538.405 468.519 534.435L467.913 536.341L467.307 538.247C479.988 542.282 493.946 545.59 509.176 548.176L509.511 546.205ZM467.913 536.341L468.558 534.448C456.143 530.216 445.32 524.727 436.068 517.999L434.892 519.616L433.716 521.234C443.333 528.228 454.524 533.89 467.268 538.234L467.913 536.341ZM434.892 519.616L436.092 518.016C427.193 511.342 420.247 503.008 415.239 492.991L413.45 493.886L411.661 494.78C416.945 505.348 424.293 514.167 433.692 521.216L434.892 519.616ZM413.45 493.886L415.239 492.991C410.266 483.046 407.731 470.791 407.731 456.147H405.731H403.731C403.731 471.237 406.341 484.141 411.661 494.78L413.45 493.886ZM405.731 456.147H407.731V453.574H405.731H403.731V456.147H405.731ZM405.731 453.574H407.731C407.731 441.552 410.105 430.554 414.829 420.55L413.021 419.696L411.212 418.842C406.216 429.422 403.731 441.01 403.731 453.574H405.731ZM413.021 419.696L414.819 420.571C419.848 410.234 426.688 401.301 435.348 393.758L434.034 392.25L432.721 390.742C423.655 398.637 416.486 408.001 411.222 418.821L413.021 419.696ZM434.034 392.25L435.324 393.778C444.263 386.236 454.902 380.348 467.272 376.131L466.626 374.238L465.981 372.345C453.192 376.705 442.103 382.825 432.745 390.721L434.034 392.25ZM466.626 374.238L467.259 376.136C479.891 371.925 493.968 369.806 509.511 369.806V367.806V365.806C493.605 365.806 479.093 367.975 465.994 372.341L466.626 374.238ZM509.511 367.806V369.806C527.045 369.806 542.524 372.351 555.981 377.397L556.684 375.525L557.386 373.652C543.397 368.406 527.427 365.806 509.511 365.806V367.806ZM556.684 375.525L556.016 377.41C569.52 382.193 580.706 388.78 589.623 397.14L590.991 395.68L592.359 394.221C582.979 385.428 571.293 378.577 557.351 373.64L556.684 375.525ZM590.991 395.68L589.646 397.16C598.874 405.549 605.699 415.17 610.154 426.03L612.004 425.271L613.855 424.512C609.161 413.071 601.978 402.965 592.336 394.201L590.991 395.68ZM612.004 425.271L610.171 426.07C614.92 436.965 617.295 448.414 617.295 460.436H619.295H621.295C621.295 447.87 618.809 435.876 613.838 424.471L612.004 425.271ZM619.295 460.436H617.295V475.874H619.295H621.295V460.436H619.295ZM619.295 475.874V473.874H562.687V475.874V477.874H619.295V475.874ZM562.687 475.874H564.687V465.582H562.687H560.687V475.874H562.687Z" fill="#175018" mask="url(#path-2-outside-1_29_2)"/>
<defs>
<radialGradient id="paint0_radial_29_2" cx="0" cy="0" r="1" gradientUnits="userSpaceOnUse" gradientTransform="translate(512 512) rotate(90) scale(512)">
<stop stop-color="#BEE6BC"/>
<stop offset="0.490385" stop-color="#109D00"/>
<stop offset="1" stop-color="#030303" stop-opacity="0"/>
</radialGradient>
</defs>
</svg>
